<svg width="163" height="169" viewBox="0 0 163 169" fill="none" xmlns="http://www.w3.org/2000/svg">
<path d="M27 126H43C43 133.56 53.96 140 67 140C80.04 140 91 133.56 91 126C91 118.3 82.68 115.5 65.08 111.79C48.12 108.08 27 103.46 27 84C27 71.47 38.76 60.83 55 57.26V42H79V57.26C95.24 60.83 107 71.47 107 84H91C91 76.44 80.04 70 67 70C53.96 70 43 76.44 43 84C43 91.7 51.32 94.5 68.92 98.21C85.88 101.92 107 106.54 107 126C107 138.53 95.24 149.17 79 152.74V168H55V152.74C38.76 149.17 27 138.53 27 126Z" fill="#B2DB31"/>
<path d="M136.799 127.646L138.274 134.654C139.593 140.922 145.87 145.835 153.879 146.867L162.833 148.022L153.879 149.176C145.87 150.209 139.593 155.121 138.274 161.39L136.799 168.398L135.324 161.39C134.004 155.121 127.727 150.209 119.718 149.176L110.764 148.022L119.718 146.867C127.727 145.835 134.004 140.922 135.324 134.654L136.799 127.646Z" fill="white"/>
<path d="M27.4889 0.942993L26.21 8.98112C24.6899 18.5353 15.3501 26.1648 3.25852 27.7297L0.322128 28.1097L3.25852 28.4898C15.3501 30.0547 24.6899 37.6841 26.21 47.2383L27.4889 55.2765L28.7677 47.2384C30.2878 37.6842 39.6276 30.0546 51.7192 28.4898L54.6556 28.1097L51.7192 27.7297C39.6276 26.1648 30.2878 18.5353 28.7677 8.98112L27.4889 0.942993Z" fill="white"/>
</svg>
