<svg width="141" height="141" viewBox="0 0 141 141" fill="none" xmlns="http://www.w3.org/2000/svg">
<circle cx="70.6146" cy="70.2348" r="60" transform="rotate(15 70.6146 70.2348)" fill="#B2DB31" stroke="black" stroke-width="20"/>
<path d="M72.6036 70.7891L83.1607 88.6295C83.502 89.2221 83.5953 89.9197 83.4202 90.5731C83.2452 91.2264 82.8155 91.7839 82.2238 92.1258L79.2251 93.7624C78.6317 94.1023 77.9217 94.1929 77.2541 94.0141C76.5865 93.8352 76.017 93.4017 75.6737 92.8108L68.1755 80.1691L55.3764 87.394C54.777 87.7228 54.0673 87.807 53.3997 87.6281C52.7314 87.449 52.1589 87.0213 51.8042 86.4368L50.042 83.4588C49.7005 82.8668 49.6072 82.1693 49.7822 81.5159C49.9573 80.8625 50.3869 80.305 50.9788 79.9625L69.0307 69.8318C70.277 69.1357 71.8724 69.5631 72.6036 70.7891Z" fill="white"/>
<path d="M74.0385 49.459L56.3801 59.7222C55.8016 60.067 55.3795 60.6258 55.2044 61.2791C55.0295 61.9318 55.1157 62.6267 55.4443 63.2146L57.1514 66.1313C57.4824 66.7184 58.0341 67.1468 58.683 67.3207C59.3319 67.4946 60.0239 67.3994 60.6035 67.0563L73.1253 59.813L80.3277 72.3414C80.6587 72.9285 81.2098 73.3567 81.8593 73.5308C82.5083 73.7046 83.1996 73.6093 83.7798 73.2664L86.722 71.5736C87.3005 71.2287 87.7226 70.67 87.8975 70.0173C88.0723 69.3647 87.9861 68.6697 87.6577 68.0812L77.4968 50.3638C76.7928 49.1543 75.2449 48.7497 74.0385 49.459Z" fill="white"/>
</svg>
