<svg width="109" height="109" viewBox="0 0 109 109" fill="none" xmlns="http://www.w3.org/2000/svg">
<g id="Group 1000009572">
<path id="Star 1" d="M53.356 0.797775C54.0434 0.318444 54.9566 0.318445 55.644 0.797776L62.7721 5.76859C63.2431 6.09701 63.8325 6.20719 64.3903 6.07107L72.8327 4.0109C73.6468 3.81224 74.4984 4.14217 74.9662 4.83743L79.8174 12.0476C80.1379 12.5239 80.6477 12.8396 81.217 12.9142L89.8335 14.0429C90.6644 14.1517 91.3393 14.767 91.5244 15.5843L93.4433 24.06C93.5701 24.6199 93.9314 25.0984 94.4354 25.3736L102.062 29.5388C102.798 29.9404 103.205 30.758 103.082 31.5869L101.81 40.1835C101.726 40.7514 101.89 41.3281 102.26 41.7668L107.868 48.4059C108.408 49.0461 108.493 49.9555 108.079 50.6841L103.787 58.2405C103.503 58.7397 103.448 59.3368 103.635 59.8796L106.465 68.096C106.738 68.8883 106.488 69.7667 105.839 70.2966L99.1073 75.7923C98.6626 76.1554 98.3953 76.6922 98.3736 77.2659L98.0447 85.9499C98.013 86.7873 97.4626 87.5161 96.6659 87.7757L88.4034 90.4685C87.8575 90.6465 87.4144 91.0504 87.1869 91.5776L83.7432 99.5563C83.4112 100.326 82.6347 100.806 81.7979 100.761L73.1207 100.287C72.5474 100.256 71.9883 100.472 71.5857 100.882L65.4923 107.078C64.9047 107.675 64.007 107.843 63.2432 107.498L55.3231 103.922C54.7998 103.685 54.2002 103.685 53.6769 103.922L45.7568 107.498C44.993 107.843 44.0953 107.675 43.5077 107.078L37.4143 100.882C37.0117 100.472 36.4526 100.256 35.8793 100.287L27.2021 100.761C26.3653 100.806 25.5888 100.326 25.2568 99.5563L21.8131 91.5776C21.5856 91.0504 21.1425 90.6465 20.5966 90.4685L12.3341 87.7757C11.5374 87.5161 10.987 86.7873 10.9553 85.9499L10.6264 77.2659C10.6047 76.6922 10.3374 76.1554 9.89266 75.7923L3.16089 70.2966C2.51176 69.7667 2.26182 68.8883 2.53475 68.096L5.3651 59.8796C5.5521 59.3368 5.49678 58.7397 5.21321 58.2405L0.921303 50.6841C0.507438 49.9555 0.591708 49.0461 1.13241 48.4059L6.73972 41.7668C7.1102 41.3281 7.27429 40.7514 7.19022 40.1835L5.91781 31.5869C5.79511 30.758 6.20221 29.9404 6.93767 29.5388L14.5646 25.3736C15.0686 25.0984 15.4299 24.6199 15.5567 24.06L17.4756 15.5843C17.6607 14.767 18.3356 14.1517 19.1665 14.0429L27.783 12.9142C28.3523 12.8396 28.8621 12.5239 29.1826 12.0476L34.0338 4.83743C34.5016 4.14216 35.3532 3.81224 36.1673 4.0109L44.6097 6.07107C45.1675 6.20719 45.7569 6.09701 46.2279 5.76859L53.356 0.797775Z" fill="#B2DB31"/>
<g id="Group 1000009571">
<circle id="Ellipse 3969" cx="55.0004" cy="53.9999" r="45.6" fill="black"/>
</g>
</g>
</svg>
