<svg width="64" height="41" viewBox="0 0 64 41" fill="none" xmlns="http://www.w3.org/2000/svg">
<g id="&#226;&#128;&#156;">
<path d="M47.976 39.76C43.2827 39.76 39.912 38.48 37.864 35.92C35.9013 33.36 34.92 30.1173 34.92 26.192C34.92 23.888 35.432 21.2 36.456 18.128C37.5653 14.9707 39.272 11.9413 41.576 9.03999C43.88 6.05333 46.7813 3.70667 50.28 2L61.544 8.528C59.5813 9.38133 57.6613 10.3627 55.784 11.472C53.9067 12.5813 52.4987 13.904 51.56 15.44H52.2C53.736 15.44 55.3147 15.824 56.936 16.592C58.6427 17.36 60.0507 18.5547 61.16 20.176C62.3547 21.712 62.952 23.76 62.952 26.32C62.952 28.112 62.44 30.0747 61.416 32.208C60.4773 34.256 58.8987 36.048 56.68 37.584C54.5467 39.0347 51.6453 39.76 47.976 39.76ZM14.056 39.76C9.36267 39.76 5.992 38.48 3.944 35.92C1.98133 33.36 1 30.1173 1 26.192C1 23.888 1.512 21.2 2.536 18.128C3.64533 14.9707 5.352 11.9413 7.656 9.03999C9.96 6.05333 12.8613 3.70667 16.36 2L27.624 8.528C25.6613 9.38133 23.7413 10.3627 21.864 11.472C19.9867 12.5813 18.5787 13.904 17.64 15.44H18.28C19.816 15.44 21.3947 15.824 23.016 16.592C24.7227 17.36 26.1307 18.5547 27.24 20.176C28.4347 21.712 29.032 23.76 29.032 26.32C29.032 28.112 28.52 30.0747 27.496 32.208C26.5573 34.256 24.9787 36.048 22.76 37.584C20.6267 39.0347 17.7253 39.76 14.056 39.76Z" fill="black"/>
<path d="M37.4672 36.2242L37.4671 36.2243L37.4736 36.2323C39.6522 38.9557 43.1992 40.26 47.976 40.26C51.705 40.26 54.7167 39.5237 56.9612 37.9975L56.9646 37.9951C59.241 36.4192 60.8855 34.5632 61.8686 32.4205C62.9139 30.2418 63.452 28.2058 63.452 26.32C63.452 23.6904 62.8395 21.5277 61.5641 19.8812C60.4078 18.1956 58.9339 16.9438 57.1456 16.138C55.5742 15.3943 54.0252 14.9918 52.5024 14.9447C53.366 13.8035 54.54 12.7879 56.0384 11.9025C57.8983 10.8034 59.7999 9.8315 61.7434 8.98654L62.6513 8.5918L61.7947 8.0954L50.5307 1.5674L50.3002 1.43382L50.0608 1.55062C46.4963 3.28937 43.5345 5.68349 41.1823 8.73172C38.8485 11.6712 37.1136 14.7481 35.9843 17.9623L35.9842 17.9622L35.9817 17.9699C34.947 21.0739 34.42 23.8173 34.42 26.192C34.42 30.2028 35.4241 33.5593 37.4672 36.2242ZM3.5472 36.2242L3.54711 36.2243L3.55357 36.2323C5.73225 38.9557 9.27922 40.26 14.056 40.26C17.785 40.26 20.7967 39.5237 23.0412 37.9975L23.0446 37.9951C25.321 36.4191 26.9656 34.5631 27.9487 32.4204C28.9939 30.2417 29.532 28.2057 29.532 26.32C29.532 23.6904 28.9195 21.5276 27.6441 19.8811C26.4878 18.1956 25.0139 16.9438 23.2256 16.138C21.6542 15.3943 20.1052 14.9918 18.5824 14.9447C19.446 13.8035 20.62 12.7879 22.1184 11.9025C23.9783 10.8034 25.8799 9.8315 27.8234 8.98654L28.7313 8.5918L27.8747 8.0954L16.6107 1.5674L16.3802 1.43382L16.1408 1.55062C12.5763 3.28939 9.61447 5.68353 7.26226 8.7318C4.92842 11.6713 3.19357 14.7481 2.06427 17.9623L2.06421 17.9622L2.06166 17.9699C1.027 21.0739 0.5 23.8173 0.5 26.192C0.5 30.2028 1.50409 33.5593 3.5472 36.2242Z" stroke="white" stroke-opacity="0.2"/>
</g>
</svg>
