<svg width="64" height="40" viewBox="0 0 64 40" fill="none" xmlns="http://www.w3.org/2000/svg">
<g id="&#226;&#128;&#156;">
<path d="M15.9761 1.02394C20.6695 1.02394 24.0401 2.30394 26.0881 4.86394C28.0508 7.42394 29.0321 10.6666 29.0321 14.5919C29.0321 16.8959 28.5201 19.5839 27.4961 22.6559C26.3868 25.8133 24.6801 28.8426 22.3761 31.7439C20.0721 34.7306 17.1708 37.0773 13.6721 38.7839L2.40815 32.2559C4.37081 31.4026 6.29081 30.4213 8.16815 29.3119C10.0455 28.2026 11.4535 26.8799 12.3921 25.3439L11.7521 25.3439C10.2161 25.3439 8.63748 24.9599 7.01615 24.1919C5.30948 23.4239 3.90148 22.2293 2.79215 20.6079C1.59748 19.0719 1.00015 17.0239 1.00015 14.4639C1.00015 12.6719 1.51215 10.7093 2.53615 8.57594C3.47481 6.52794 5.05348 4.73594 7.27215 3.19994C9.40548 1.74927 12.3068 1.02394 15.9761 1.02394ZM49.8961 1.02393C54.5895 1.02393 57.9601 2.30394 60.0081 4.86394C61.9708 7.42394 62.9521 10.6666 62.9521 14.5919C62.9521 16.8959 62.4401 19.5839 61.4161 22.6559C60.3068 25.8133 58.6001 28.8426 56.2961 31.7439C53.9921 34.7306 51.0908 37.0773 47.5921 38.7839L36.3281 32.2559C38.2908 31.4026 40.2108 30.4213 42.0881 29.3119C43.9655 28.2026 45.3735 26.8799 46.3121 25.3439L45.6721 25.3439C44.1361 25.3439 42.5575 24.9599 40.9361 24.1919C39.2295 23.4239 37.8215 22.2293 36.7121 20.6079C35.5175 19.0719 34.9201 17.0239 34.9201 14.4639C34.9201 12.6719 35.4321 10.7093 36.4561 8.57594C37.3948 6.52794 38.9735 4.73594 41.1921 3.19994C43.3255 1.74927 46.2268 1.02393 49.8961 1.02393Z" fill="black"/>
<path d="M26.4849 4.55973L26.485 4.55966L26.4786 4.55159C24.2999 1.82824 20.7529 0.523937 15.9761 0.523938C12.2472 0.523938 9.23546 1.26024 6.99098 2.78646L6.98754 2.78885C4.71119 4.36477 3.06661 6.22077 2.08353 8.36344C1.03827 10.5421 0.500146 12.5782 0.500147 14.4639C0.500147 17.0935 1.11269 19.2563 2.38804 20.9028C3.54433 22.5883 5.01821 23.8402 6.8065 24.6459C8.37793 25.3896 9.92691 25.7921 11.4498 25.8393C10.5862 26.9804 9.41217 27.9961 7.91378 28.8815C6.05385 29.9805 4.1522 30.9524 2.20878 31.7974L1.3009 32.1921L2.15743 32.6885L13.4214 39.2165L13.6519 39.3501L13.8914 39.2333C17.4558 37.4946 20.4176 35.1005 22.7698 32.0522C25.1037 29.1127 26.8386 26.0359 27.9679 22.8217L27.9679 22.8217L27.9705 22.8141C29.0051 19.7101 29.5321 16.9666 29.5321 14.5919C29.5321 10.5811 28.528 7.22464 26.4849 4.55973ZM60.4049 4.55972L60.405 4.55966L60.3986 4.55159C58.2199 1.82824 54.6729 0.523934 49.8961 0.523935C46.1672 0.523935 43.1555 1.26023 40.911 2.78646L40.9075 2.78884C38.6311 4.36481 36.9865 6.22084 36.0035 8.36356C34.9583 10.5422 34.4201 12.5782 34.4201 14.4639C34.4201 17.0935 35.0327 19.2563 36.3081 20.9028C37.4643 22.5883 38.9382 23.8402 40.7265 24.6459C42.2979 25.3896 43.8469 25.7921 45.3698 25.8393C44.5062 26.9804 43.3322 27.9961 41.8338 28.8815C39.9739 29.9805 38.0722 30.9524 36.1288 31.7974L35.2209 32.1921L36.0774 32.6885L47.3414 39.2165L47.5719 39.3501L47.8114 39.2333C51.3758 37.4945 54.3377 35.1004 56.6899 32.0521C59.0237 29.1127 60.7586 26.0358 61.8879 22.8217L61.8879 22.8217L61.8905 22.8141C62.9252 19.7101 63.4521 16.9666 63.4521 14.5919C63.4521 10.5811 62.4481 7.22464 60.4049 4.55972Z" stroke="white" stroke-opacity="0.2"/>
</g>
</svg>
